<svg xmlns="http://www.w3.org/2000/svg">
    <symbol id="icon-usd" viewBox="0 0 24 24" fill="none" stroke="currentColor" stroke-width="2" stroke-linecap="round" stroke-linejoin="round">
        <line x1="12" y1="1" x2="12" y2="23" />
        <path d="M17 5H9.5a3.5 3.5 0 0 0 0 7h5a3.5 3.5 0 0 1 0 7H6" />
    </symbol>

    <symbol id="icon-eur" viewBox="0 0 24 24" fill="none" stroke="currentColor" stroke-width="2" stroke-linecap="round" stroke-linejoin="round">
        <path d="M18 6a8 8 0 1 0 0 12" />
        <line x1="5" y1="10" x2="15" y2="10" />
        <line x1="5" y1="14" x2="15" y2="14" />
    </symbol>

    <symbol id="icon-cny" viewBox="0 0 24 24" fill="none" stroke="currentColor" stroke-width="2" stroke-linecap="round" stroke-linejoin="round">
        <path d="M12 12V21" />
        <path d="M19 3L12 12L5 3" />
        <line x1="7" y1="12" x2="17" y2="12" />
        <line x1="7" y1="16" x2="17" y2="16" />
    </symbol>

    <symbol id="icon-gbp" viewBox="0 0 24 24" fill="none" stroke="currentColor" stroke-width="2" stroke-linecap="round" stroke-linejoin="round">
        <path d="M12 18.5a5 5 0 0 1-5-5V10a5 5 0 0 1 5-5 5 5 0 0 1 5 5" />
        <line x1="7" y1="13" x2="15" y2="13" />
        <path d="M7 18.5h10" />
    </symbol>

    <symbol id="icon-try" viewBox="0 0 24 24" fill="none" stroke="currentColor" stroke-width="2" stroke-linecap="round" stroke-linejoin="round">
        <path d="M6 15a6 6 0 1 0 0-12" />
        <line x1="6" y1="9" x2="14" y2="6" />
        <line x1="6" y1="13" x2="14" y2="10" />
        <line x1="6" y1="3" x2="6" y2="21" />
    </symbol>

    <symbol id="icon-kzt" viewBox="0 0 24 24" fill="none" stroke="currentColor" stroke-width="2" stroke-linecap="round" stroke-linejoin="round">
        <line x1="6" y1="4" x2="18" y2="4" />
        <line x1="6" y1="8" x2="18" y2="8" />
        <line x1="12" y1="8" x2="12" y2="20" />
        <path d="M9 20h6" />
    </symbol>

    <symbol id="icon-byn" viewBox="0 0 24 24" fill="none" stroke="currentColor" stroke-width="2" stroke-linecap="round" stroke-linejoin="round">
        <path d="M6 12h8a4 4 0 1 0 0-8H6v16" />
        <line x1="3" y1="12" x2="9" y2="12" />
        <line x1="3" y1="16" x2="9" y2="16" />
    </symbol>

    <symbol id="icon-aed" viewBox="0 0 24 24" fill="none" stroke="currentColor" stroke-width="2" stroke-linecap="round" stroke-linejoin="round">
        <path d="M5 5h14a2 2 0 0 1 2 2v10a2 2 0 0 1-2 2H5a2 2 0 0 1-2-2V7a2 2 0 0 1 2-2z" />
        <line x1="9" y1="5" x2="9" y2="19" />
        <line x1="15" y1="5" x2="15" y2="19" />
    </symbol>

    <symbol id="icon-money" viewBox="0 0 24 24" fill="none" stroke="currentColor" stroke-width="2" stroke-linecap="round" stroke-linejoin="round">
        <rect x="2" y="6" width="20" height="12" rx="2" />
        <circle cx="12" cy="12" r="2" />
        <path d="M6 12h.01M18 12h.01" />
    </symbol>
</svg>